<svg width="64" height="64" viewBox="0 0 64 64" fill="none" xmlns="http://www.w3.org/2000/svg">
<path d="M16 50.6667C21.891 50.6667 26.6666 45.8911 26.6666 40C26.6666 34.109 21.891 29.3334 16 29.3334C10.1089 29.3334 5.33331 34.109 5.33331 40C5.33331 45.8911 10.1089 50.6667 16 50.6667Z" stroke="#EE2F4D" stroke-width="4" stroke-linecap="round" stroke-linejoin="round"/>
<path d="M48 50.6667C53.891 50.6667 58.6666 45.8911 58.6666 40C58.6666 34.109 53.891 29.3334 48 29.3334C42.1089 29.3334 37.3333 34.109 37.3333 40C37.3333 45.8911 42.1089 50.6667 48 50.6667Z" stroke="#EE2F4D" stroke-width="4" stroke-linecap="round" stroke-linejoin="round"/>
<path d="M37.3334 40C37.3334 38.5855 36.7714 37.2289 35.7713 36.2287C34.7711 35.2285 33.4145 34.6666 32 34.6666C30.5855 34.6666 29.229 35.2285 28.2288 36.2287C27.2286 37.2289 26.6667 38.5855 26.6667 40" stroke="#EE2F4D" stroke-width="4" stroke-linecap="round" stroke-linejoin="round"/>
<path d="M6.66669 34.6667L13.3334 18.6667C15.2 15.2 17.0667 13.3334 21.3334 13.3334" stroke="#EE2F4D" stroke-width="4" stroke-linecap="round" stroke-linejoin="round"/>
<path d="M57.3334 34.6667L50.6667 18.6667C48.8 15.2 46.6667 13.3334 42.6667 13.3334" stroke="#EE2F4D" stroke-width="4" stroke-linecap="round" stroke-linejoin="round"/>
</svg>
