<svg width="66" height="64" viewBox="0 0 66 64" fill="none" xmlns="http://www.w3.org/2000/svg">
<g clip-path="url(#clip0_2003_958)">
<path d="M24.5049 4.70112C20.2269 7.30084 16.7226 9.58129 16.6315 9.85495C16.5405 10.1286 18.452 11.4057 20.9096 12.7739C23.3672 14.0966 26.2799 15.6473 27.4176 16.2858C32.788 19.1592 32.5604 18.9312 36.5654 25.5445C38.6589 29.0108 40.5703 31.8842 40.8434 31.8842C41.071 31.8842 41.7991 31.4737 42.3908 31.0176L43.5285 30.151L39.5691 23.5377C35.4276 16.6051 35.4731 16.6507 29.9208 13.6405C24.0043 10.4023 22.8665 9.76373 22.8665 9.44447C22.8665 9.26203 24.4594 8.16741 26.4164 7.07279C28.3279 5.93256 31.1496 4.29064 32.6059 3.37845L35.2911 1.73652L33.8347 0.824343C33.061 0.36825 32.3784 -0.0422306 32.2873 0.00337791C32.2418 0.00337791 28.7375 2.1014 24.5049 4.70112Z" fill="#017DC2"/>
<path d="M33.9257 6.43429C31.3315 7.93939 29.329 9.35327 29.4656 9.58132C29.6021 9.76375 31.6956 10.9952 34.1532 12.3179C36.5653 13.5949 38.9319 15.1 39.3415 15.6473C39.7966 16.1946 41.708 19.2048 43.665 22.3975L47.1694 28.1442L48.5802 27.4601C49.3084 27.0496 50.0365 26.6847 50.0821 26.6391C50.2641 26.5023 42.7548 13.9142 41.9811 12.9564C41.7535 12.6827 40.2517 11.8162 38.6133 10.9496C36.9749 10.1286 35.6096 9.30766 35.6096 9.12523C35.6096 8.9884 36.5653 8.30426 37.7941 7.62012C38.9774 6.93599 40.3427 6.11502 40.7978 5.75015C41.6625 5.11162 41.6625 5.06601 40.2517 4.33627C39.478 3.92579 38.7953 3.60652 38.7043 3.65213C38.6133 3.65213 36.4743 4.88358 33.9257 6.43429Z" fill="#017DC2"/>
<path d="M43.3467 8.21318C41.8903 9.12536 41.8448 9.21658 42.664 9.8095C43.1191 10.1744 43.7563 10.448 44.0293 10.448C44.8941 10.448 46.3049 12.2724 49.7182 17.9735C51.4932 20.9837 53.1771 23.6291 53.3591 23.8571C53.5867 24.0852 54.3603 23.9027 55.134 23.3554L56.5449 22.4888L52.4489 15.6931C49.5362 10.7217 48.0343 8.62366 46.9876 8.03074C45.2126 7.07295 45.2581 7.07295 43.3467 8.21318Z" fill="#017DC2"/>
<path d="M13.264 14.1878C12.2172 16.0122 10.4423 19.068 9.30453 20.9379C7.80267 23.4464 7.25654 24.8603 7.16551 26.3654C7.12 28.1442 7.25654 28.4178 8.71289 29.3756L10.3513 30.379L10.6244 27.8249C10.8519 25.6813 11.4436 24.2674 14.3563 19.3872C16.2677 16.149 17.8606 13.23 17.8606 12.9563C17.8606 12.6827 17.269 12.0898 16.5408 11.6793L15.1755 10.9039L13.264 14.1878Z" fill="#017DC2"/>
<path d="M20.6823 16.0578C20.2272 16.8332 18.4522 19.889 16.7683 22.808L13.7646 28.0987V31.793C13.7646 34.4839 13.6281 35.5329 13.2185 35.5329C12.8999 35.5329 11.4891 34.8032 10.1237 33.9366C8.75839 33.0701 7.48408 32.3403 7.25653 32.3403C7.07448 32.3403 6.93795 33.1157 7.02897 34.0278C7.16551 35.6698 7.34755 35.8066 11.7166 38.3607C14.2197 39.8202 16.4042 41.006 16.5408 41.006C16.7228 41.006 16.9504 38.2695 17.0414 34.94L17.269 28.9196L20.9553 22.7624C22.9578 19.3873 24.5052 16.4683 24.4142 16.2859C24.2776 16.0578 23.595 15.6018 22.8668 15.2369C21.5925 14.5984 21.547 14.5984 20.6823 16.0578Z" fill="#017DC2"/>
<path d="M25.825 22.6711C24.5962 24.8604 22.8213 27.9162 21.8655 29.4669L20.1361 32.3403L20.0451 39.6377L19.9086 46.9352L13.5825 43.2864C10.1237 41.2796 7.16548 39.6833 7.07445 39.8201C6.98343 39.9114 7.02894 40.7323 7.16548 41.5989C7.43854 43.104 7.89365 43.4689 12.3082 45.9774C14.9934 47.5281 18.5887 49.5805 20.2727 50.5839C22.0021 51.5873 23.5039 52.4083 23.595 52.4083C23.686 52.4083 23.777 48.121 23.777 42.876V33.3437L27.4179 27.004C29.4204 23.5377 31.0588 20.5731 31.0588 20.3907C31.0588 20.117 28.6922 18.6575 28.2371 18.6575C28.1461 18.6575 27.0993 20.4363 25.825 22.6711Z" fill="#017DC2"/>
<path d="M52.449 26.6847C50.0825 28.0986 46.4416 30.2422 44.3481 31.4737L40.5251 33.7085H33.1068H25.6886L25.5065 35.5329L25.3245 37.3573H33.1979C42.027 37.3573 40.4796 37.8134 49.2633 32.6139L53.5868 30.0142L53.8144 37.0836C53.9509 40.9604 54.1784 44.2899 54.3605 44.4723C54.5425 44.6091 55.2252 44.4267 55.8624 44.0162L57.0001 43.2865V33.7085C57.0001 28.4179 56.9546 24.1306 56.9091 24.1306C56.8181 24.1762 54.8156 25.3165 52.449 26.6847Z" fill="#017DC2"/>
<path d="M45.3947 38.4975L40.3885 41.4621H32.7882H25.1423V43.2865V45.1109H33.2433H41.2987L44.257 43.2865C45.8954 42.2831 47.3517 41.4621 47.5793 41.4621C47.7613 41.4621 47.8978 43.1041 47.8978 45.1109V48.714L49.2632 47.9386L50.6285 47.1633V41.3253C50.6285 38.1327 50.583 35.533 50.492 35.533C50.4009 35.533 48.1254 36.8556 45.3947 38.4975Z" fill="#017DC2"/>
<path d="M42.2086 47.8017C41.0253 48.5315 39.7055 48.7139 33.1064 48.8508L25.3695 49.0332L25.233 50.7207L25.0964 52.4083H33.3339C43.3008 52.4083 44.2566 52.089 44.2566 48.8964C44.2566 46.6615 44.12 46.6159 42.2086 47.8017Z" fill="#017DC2"/>
</g>
<defs>
<clipPath id="clip0_2003_958">
<rect width="64" height="62" fill="white"/>
</clipPath>
</defs>
</svg>
