<svg width="64" height="64" viewBox="0 0 64 64" fill="none" xmlns="http://www.w3.org/2000/svg">
<g clip-path="url(#clip0_2003_1033)">
<path d="M0 0V64H64V0H0ZM48.4 34.8C48.225 36.225 47.925 37.6875 47.4125 39.025C45.9125 42.8625 42.9125 44.975 38.9375 45.6125C36.6625 45.975 34.325 45.9875 31.8 46.175C29.5375 45.975 27.05 45.95 24.6375 45.525C19.9625 44.7 16.7875 41.425 15.8625 36.7375C15.3875 34.35 15.25 31.95 15.9875 29.575C16.375 28.35 17.0125 27.2625 17.8375 26.275C17.95 26.15 18.05 25.9625 18.0375 25.8C17.9 23.65 18.15 21.525 18.7875 19.475C19.3125 17.7625 18.925 17.8625 20.825 18.3625C23.1125 18.9625 25.1125 20.2 27.075 21.4875C27.3 21.6375 27.65 21.7 27.925 21.65C30.7 21.225 33.4625 21.2 36.2375 21.6875C36.4375 21.725 36.7 21.65 36.8875 21.5375C38.575 20.4375 40.3125 19.45 42.2125 18.7625C42.9 18.5125 43.625 18.35 44.325 18.1375C44.6375 18.05 44.775 18.1625 44.8875 18.4625C45.7375 20.8375 46.0875 23.275 45.9625 25.7875C45.95 25.925 46.025 26.1125 46.1125 26.225C48.25 28.7 48.7875 31.65 48.4 34.8Z" fill="#E9F1FF"/>
<path d="M40.0125 31.675C38.9375 31.4875 37.8125 31.5125 36.7125 31.575C34.2125 31.7125 31.7125 31.95 29.2125 31.725C28.025 31.6125 26.825 31.5 25.625 31.525C23.45 31.5625 21.625 32.275 20.55 34.35C20.0125 35.375 19.8875 36.475 19.925 37.6125C20.0125 40.8125 21.4 42.6375 24.45 43.55C26.9 44.275 29.4125 44.375 31.9375 44.325C32.875 44.325 33.8125 44.375 34.75 44.3125C36.6875 44.2 38.5875 43.9125 40.425 43.2375C42.325 42.5375 43.4625 41.2 43.875 39.2625C44.0375 38.5125 44.1125 37.725 44.1 36.9625C44.075 34.375 42.325 32.0625 40.0125 31.675ZM27.7125 40.1375C26.9 41.025 25.725 41.0375 24.8875 40.175C24.275 39.55 23.925 38.5875 23.925 37.3875C23.95 36.575 24.1875 35.6875 24.8875 34.975C25.725 34.1125 26.9 34.125 27.7125 35C28.9375 36.325 28.9375 38.8125 27.7125 40.1375ZM39.075 40.2C38.3125 40.9875 37.2125 41.0125 36.4 40.2875C35 39.0125 35 36.175 36.4 34.8875C37.2 34.15 38.3 34.175 39.075 34.9625C39.7875 35.6875 40.025 36.6 40.0625 37.575C40.025 38.5625 39.775 39.4625 39.075 40.2Z" fill="#E9F1FF"/>
</g>
<defs>
<clipPath id="clip0_2003_1033">
<rect width="64" height="64" rx="8" fill="white"/>
</clipPath>
</defs>
</svg>
