<svg width="64" height="64" viewBox="0 0 64 64" fill="none" xmlns="http://www.w3.org/2000/svg">
<g clip-path="url(#clip0_2003_1031)">
<path d="M59 0H5C2.2375 0 0 2.2375 0 5V59C0 61.7625 2.2375 64 5 64H59C61.7625 64 64 61.7625 64 59V5C64 2.2375 61.7625 0 59 0ZM23.05 45.3875H16.8125V25.425H23.05V45.3875ZM19.7625 22.925H19.7125C17.45 22.925 15.9875 21.4 15.9875 19.4625C15.9875 17.4875 17.5 16 19.8 16C22.1 16 23.5125 17.4875 23.5625 19.4625C23.575 21.3875 22.1125 22.925 19.7625 22.925ZM48 45.3875H40.925V35.0625C40.925 32.3625 39.825 30.5125 37.3875 30.5125C35.525 30.5125 34.4875 31.7625 34.0125 32.9625C33.8375 33.3875 33.8625 33.9875 33.8625 34.6V45.3875H26.85C26.85 45.3875 26.9375 27.0875 26.85 25.425H33.8625V28.5625C34.275 27.1875 36.5125 25.2375 40.0875 25.2375C44.525 25.2375 48 28.1125 48 34.2875V45.3875Z" fill="#E9F1FF"/>
</g>
<defs>
<clipPath id="clip0_2003_1031">
<rect width="64" height="64" fill="white"/>
</clipPath>
</defs>
</svg>
