<svg width="64" height="64" viewBox="0 0 64 64" fill="none" xmlns="http://www.w3.org/2000/svg">
<g clip-path="url(#clip0_2003_1037)">
<path d="M54.4 0H9.6C4.29807 0 0 4.29807 0 9.6V54.4C0 59.7019 4.29807 64 9.6 64H54.4C59.7019 64 64 59.7019 64 54.4V9.6C64 4.29807 59.7019 0 54.4 0Z" fill="#E9F1FF"/>
<path d="M15.375 49.125L17.125 41C14.8757 37.4523 13.9982 33.2057 14.6572 29.0571C15.3162 24.9085 17.4664 21.1429 20.7043 18.4668C23.9422 15.7907 28.0453 14.3881 32.2438 14.5221C36.4423 14.6561 40.4476 16.3174 43.5083 19.1945C46.569 22.0715 48.4748 25.9666 48.8679 30.1488C49.2611 34.331 48.1147 38.5129 45.6438 41.91C43.173 45.3071 39.5474 47.6858 35.4475 48.5999C31.3475 49.514 27.0549 48.9007 23.375 46.875L15.375 49.125Z" fill="#E9F1FF" stroke="#1E1E1E" stroke-width="4"/>
<path d="M38.4999 34.125C38.1249 33.875 37.7499 33.75 37.3749 34.25L35.8749 36.25C35.4999 36.5 35.2499 36.625 34.7499 36.375C32.8749 35.375 30.2499 34.25 27.9999 30.5C27.8749 30 28.1249 29.75 28.3749 29.5L29.4999 27.75C29.7499 27.5 29.6249 27.25 29.4999 27L27.9999 23.375C27.6249 22.375 27.2499 22.5 26.8749 22.5H25.8749C25.6249 22.5 25.1249 22.625 24.6249 23.125C21.8749 25.875 22.9999 29.75 24.9999 32.25C25.3749 32.75 27.8749 37.25 33.2499 39.625C37.2499 41.375 38.1249 41.125 39.2499 40.875C40.6249 40.75 41.9999 39.625 42.6249 38.5C42.7499 38.125 43.3749 36.5 42.8749 36.25" fill="#1E1E1E"/>
</g>
<defs>
<clipPath id="clip0_2003_1037">
<rect width="64" height="64" fill="white"/>
</clipPath>
</defs>
</svg>
